<svg width="232" height="67" viewBox="0 0 232 67" fill="none" xmlns="http://www.w3.org/2000/svg">
<path d="M146.216 22.4053C147.328 22.273 148.377 21.8218 149.238 21.1063C150.099 20.3907 150.734 19.4413 151.067 18.3726C151.4 17.304 151.417 16.1619 151.115 15.0839C150.813 14.006 150.206 13.0383 149.367 12.2979C148.527 11.5574 147.492 11.0757 146.384 10.9109C145.277 10.746 144.146 10.9052 143.127 11.3691C142.109 11.8329 141.246 12.5818 140.643 13.5251C140.041 14.4684 139.724 15.5659 139.732 16.6853C139.753 17.4963 139.941 18.2943 140.285 19.0294C140.628 19.7644 141.12 20.4207 141.728 20.9574C142.337 21.4942 143.049 21.8997 143.821 22.1488C144.593 22.3979 145.409 22.4852 146.216 22.4053Z" fill="white"/>
<path d="M191.713 22.4045C192.827 22.2771 193.879 21.8299 194.744 21.1169C195.608 20.4039 196.248 19.4558 196.585 18.3871C196.922 17.3184 196.942 16.1748 196.643 15.0949C196.344 14.0149 195.738 13.0447 194.899 12.3017C194.06 11.5587 193.024 11.0747 191.916 10.9081C190.808 10.7416 189.675 10.8998 188.655 11.3634C187.635 11.8271 186.771 12.5763 186.167 13.5206C185.564 14.4649 185.247 15.5639 185.255 16.6845C185.277 17.4931 185.465 18.2885 185.806 19.0217C186.148 19.7548 186.637 20.4098 187.243 20.9462C187.848 21.4825 188.558 21.8888 189.327 22.1396C190.096 22.3905 190.908 22.4806 191.713 22.4045Z" fill="white"/>
<path d="M221.079 39.8037L230.331 25.1477V24.5677H218.021L215.912 28.3635L213.725 32.6602L211.563 28.3107L209.454 24.5677H175.213L171.918 33.161L168.808 43.0987L165.513 33.161L162.139 24.5677H141.209L136.438 24.0932C135.649 23.926 134.846 23.8378 134.039 23.8297C132.538 23.7919 131.054 24.1646 129.749 24.9078C128.444 25.6511 127.366 26.7365 126.632 28.0472L125.973 24.6731H115.983C114.744 17.5296 109.024 11.8623 98.7699 11.8623H77.6821V55.4086H89.9921V43.6521H98.7699C108.47 43.6521 114.085 38.6965 115.693 31.922V55.4086H127.133V39.4082C127.036 38.67 127.102 37.9195 127.326 37.2094C127.549 36.4993 127.925 35.8465 128.427 35.2968C128.93 34.747 129.546 34.3135 130.233 34.0266C130.92 33.7396 131.661 33.6061 132.405 33.6355C133.364 33.5841 134.323 33.7231 135.228 34.0443C136.133 34.3655 136.965 34.8626 137.677 35.507L140.471 30.4459V55.4086H151.99V28.759L163.43 55.4876H174.791L186.021 28.179V55.3032H208.848L210.825 51.8763L213.804 46.6044L216.809 51.8763L218.786 55.3032H231.412L221.079 39.8037ZM98.7699 33.161H89.9394V22.3272H98.7699C99.4803 22.3266 100.184 22.4696 100.837 22.7476C101.491 23.0256 102.082 23.433 102.574 23.9451C103.067 24.4572 103.451 25.0635 103.703 25.7277C103.955 26.3919 104.07 27.1 104.042 27.8099C104.1 28.5206 104.005 29.2357 103.762 29.9061C103.519 30.5765 103.134 31.1865 102.633 31.6945C102.133 32.2025 101.528 32.5966 100.862 32.8497C100.195 33.1028 99.4814 33.2089 98.7699 33.161ZM197.434 53.3525V25.6222L206.449 39.8827L197.434 53.3525Z" fill="white"/>
<path d="M66.3213 66.3213H22.1162V44.2051H44.2061V22.1162H22.1162V44.2041L0 52.6924V30.5762L22.1162 22.1143V0H66.3213V66.3213Z" fill="#2950FF"/>
</svg>
