<svg width="482" height="107" viewBox="0 0 482 107" fill="none" xmlns="http://www.w3.org/2000/svg">
<path fill-rule="evenodd" clip-rule="evenodd" d="M90.4139 16.2266C80.4606 6.27331 67.2306 0.784668 53.1403 0.784668C39.0501 0.784668 25.82 6.27331 15.8667 16.2266C5.91344 26.1799 0.424805 39.4099 0.424805 53.5002C0.424805 67.5904 5.91344 80.8205 15.8667 90.7738C25.82 100.727 39.0501 106.216 53.1403 106.216C67.2306 106.216 80.4606 100.727 90.4139 90.7738C100.367 80.8205 105.856 67.5904 105.856 53.5002C105.856 39.4099 100.367 26.1799 90.4139 16.2266ZM42.9822 92.8627C42.9822 95.7709 44.211 98.4743 46.3 100.358C41.4667 97.8599 38.1899 92.7808 38.1899 87.0874C38.1899 78.8544 44.8664 72.1779 53.0994 72.1779C61.3323 72.1779 68.0088 78.8544 68.0088 87.0874C68.0088 92.7399 64.773 97.8189 59.8987 100.358C61.9467 98.4743 63.2165 95.7709 63.2165 92.8627C63.2165 87.2922 58.6699 82.7047 53.0584 82.7047C47.5288 82.7456 42.9822 87.2922 42.9822 92.8627ZM71.4494 86.1453C71.4494 76.0692 63.2574 67.8362 53.1403 67.8362C43.0642 67.8362 34.8312 76.0282 34.8312 86.1453C34.8312 90.8967 36.6744 95.4432 39.9512 98.8019C33.1109 94.3783 28.851 86.7187 28.851 78.4039C28.851 65.0099 39.7464 54.1146 53.1403 54.1146C66.5342 54.1146 77.4296 65.0099 77.4296 78.4039C77.4296 86.7187 73.1698 94.3783 66.3294 98.8019C69.5653 95.4432 71.4494 90.8967 71.4494 86.1453ZM81.075 76.8474C81.075 61.4464 68.5413 48.9127 53.1403 48.9127C37.7394 48.9127 25.2056 61.4464 25.2056 76.8474C25.2056 84.2611 28.1547 91.3063 33.2747 96.4672C24.3454 90.1184 18.9387 79.8375 18.9387 68.6144C18.9387 49.7319 34.2987 34.4128 53.1403 34.4128C71.9819 34.4128 87.3419 49.7728 87.3419 68.6144C87.3419 79.8375 81.9352 90.1184 73.0059 96.4672C78.1259 91.3063 81.075 84.2611 81.075 76.8474ZM81.4846 93.2723C88.325 86.0634 92.1752 76.5607 92.1752 66.4436C92.1752 44.9395 74.6853 27.4496 53.1813 27.4496C31.6773 27.4496 14.1874 44.9395 14.1874 66.4436C14.1874 76.5607 18.0376 86.0634 24.8779 93.2723C13.573 84.5479 6.73264 70.8672 6.73264 56.4493C6.73264 30.8084 27.5813 9.95971 53.2222 9.95971C78.8632 9.95971 99.7118 30.8084 99.7118 56.4493C99.6299 70.8672 92.7896 84.5479 81.4846 93.2723Z" fill="white"/>
<path d="M148.945 34.4136H157.997L168.033 50.5518L178.068 34.4136H187.12V72.5473H178.805V47.6437L168.074 63.9457H167.869L157.26 47.8075V72.5473H149.027L148.945 34.4136Z" fill="white"/>
<path d="M211.49 34.4136H240.244V41.8683H219.805V49.6097H237.786V57.0645H219.805V65.0517H240.49V72.5064H211.449L211.49 34.4136Z" fill="white"/>
<path d="M260.643 67.017L265.599 61.0778C269.08 63.904 272.644 65.7062 276.986 65.7062C280.467 65.7062 282.474 64.3546 282.474 62.1018V61.9789C282.474 59.849 281.164 58.7021 274.774 57.1456C267.032 55.2205 262.117 53.0086 262.117 45.472V45.3491C262.117 38.4269 267.606 33.8394 275.47 33.8394C281.082 33.8394 285.71 35.6006 289.642 38.6726L285.301 44.9805C281.86 42.6458 278.665 41.2122 275.388 41.2122C272.111 41.2122 270.473 42.6458 270.473 44.5299V44.6528C270.473 47.1923 272.111 47.9296 278.706 49.6499C286.447 51.6979 290.789 54.4422 290.789 61.0778V61.2006C290.789 68.7782 285.014 73.0381 276.781 73.0381C271.005 73.12 265.23 71.1539 260.643 67.017Z" fill="white"/>
<path d="M310.203 67.017L315.159 61.0778C318.641 63.904 322.204 65.7062 326.546 65.7062C330.028 65.7062 332.035 64.3546 332.035 62.1018V61.9789C332.035 59.849 330.724 58.7021 324.334 57.1456C316.593 55.2205 311.678 53.0086 311.678 45.472V45.3491C311.678 38.4269 317.166 33.8394 325.031 33.8394C330.642 33.8394 335.271 35.6006 339.203 38.6726L334.861 44.9805C331.42 42.6458 328.226 41.2122 324.949 41.2122C321.672 41.2122 320.034 42.6458 320.034 44.5299V44.6528C320.034 47.1923 321.672 47.9296 328.267 49.6499C336.008 51.6979 340.35 54.4422 340.35 61.0778V61.2006C340.35 68.7782 334.574 73.0381 326.341 73.0381C320.566 73.12 314.791 71.1539 310.203 67.017Z" fill="white"/>
<path d="M363.33 34.4136H371.727V72.5473H363.33V34.4136Z" fill="white"/>
<path d="M396.507 34.4136H425.261V41.8683H404.822V49.6097H422.803V57.0645H404.822V65.0517H425.507V72.5064H396.507V34.4136Z" fill="white"/>
<path d="M448.281 34.4136H465.73C470.563 34.4136 474.291 35.7243 476.83 38.2638C479.001 40.4347 480.107 43.3429 480.107 46.9883V47.1112C480.107 53.2552 476.789 57.1464 471.956 58.9486L481.295 72.5473H471.506L463.355 60.3413H456.76V72.5473H448.363L448.281 34.4136ZM465.157 52.9685C469.294 52.9685 471.588 50.8385 471.588 47.5617V47.4389C471.588 43.7934 469.13 41.9912 464.993 41.9912H456.678V52.9275H465.157V52.9685Z" fill="white"/>
</svg>
