<svg width="115" height="33" viewBox="0 0 115 33" fill="none" xmlns="http://www.w3.org/2000/svg">
<g id="Logo">
<path id="Vector" d="M72.2783 11.223C72.8254 11.1579 73.3419 10.9359 73.7655 10.5837C74.1891 10.2315 74.5018 9.76427 74.6657 9.23834C74.8297 8.71241 74.8379 8.15032 74.6894 7.61981C74.5409 7.0893 74.2421 6.61306 73.829 6.24864C73.4159 5.88421 72.9061 5.64713 72.3612 5.56602C71.8163 5.48491 71.2596 5.56323 70.7582 5.79153C70.2569 6.01982 69.8323 6.38837 69.5357 6.85263C69.2392 7.31689 69.0833 7.85702 69.087 8.4079C69.0975 8.80707 69.1902 9.1998 69.3593 9.56156C69.5283 9.92332 69.7701 10.2463 70.0696 10.5105C70.369 10.7746 70.7197 10.9742 71.0997 11.0968C71.4797 11.2194 71.881 11.2624 72.2783 11.223Z" fill="#0B1133"/>
<path id="Vector_2" d="M94.6699 11.2231C95.2178 11.1604 95.7359 10.9403 96.1614 10.5894C96.5869 10.2385 96.9016 9.7719 97.0674 9.24593C97.2333 8.71995 97.2432 8.15715 97.096 7.62565C96.9488 7.09416 96.6507 6.61667 96.2379 6.251C95.825 5.88532 95.315 5.64709 94.7697 5.56513C94.2243 5.48317 93.6668 5.56104 93.1647 5.78921C92.6626 6.01739 92.2374 6.38612 91.9405 6.85087C91.6435 7.31562 91.4876 7.85646 91.4915 8.40796C91.5022 8.80592 91.5945 9.19741 91.7628 9.55822C91.9311 9.91902 92.1717 10.2414 92.4697 10.5054C92.7677 10.7693 93.1168 10.9693 93.4953 11.0927C93.8737 11.2162 94.2736 11.2605 94.6699 11.2231Z" fill="#0B1133"/>
<path id="Vector_3" d="M109.122 19.7853L113.676 12.5724V12.2869H107.617L106.58 14.155L105.503 16.2696L104.439 14.1291L103.401 12.2869H86.5493L84.9277 16.5161L83.3969 21.407L81.7753 16.5161L80.1147 12.2869H69.8142L67.4661 12.0534C67.0778 11.9711 66.6824 11.9277 66.2855 11.9237C65.5465 11.9051 64.8164 12.0885 64.174 12.4543C63.5316 12.8201 63.0013 13.3543 62.6401 13.9994L62.3158 12.3388H57.399C56.7893 8.82311 53.9742 6.03394 48.9277 6.03394H38.5493V27.4653H44.6077V21.6793H48.9277C53.7018 21.6793 56.465 19.2404 57.2563 15.9064V27.4653H62.8866V19.5907C62.8391 19.2274 62.8715 18.858 62.9816 18.5085C63.0916 18.159 63.2766 17.8378 63.5237 17.5672C63.7708 17.2967 64.074 17.0833 64.4121 16.9421C64.7502 16.8009 65.1151 16.7352 65.4812 16.7496C65.9531 16.7243 66.4253 16.7927 66.8706 16.9508C67.3159 17.1089 67.7255 17.3536 68.0758 17.6707L69.4509 15.1799V27.4653H75.1201V14.3497L80.7504 27.5042H86.3418L91.8682 14.0642V27.4135H103.103L104.076 25.7269L105.542 23.1323L107.021 25.7269L107.994 27.4135H114.208L109.122 19.7853ZM48.9277 16.5161H44.5818V11.1842H48.9277C49.2773 11.184 49.6234 11.2543 49.9452 11.3911C50.2669 11.528 50.5577 11.7285 50.8 11.9805C51.0424 12.2325 51.2313 12.5309 51.3554 12.8578C51.4795 13.1847 51.5363 13.5332 51.5223 13.8826C51.5511 14.2324 51.5041 14.5843 51.3844 14.9142C51.2647 15.2442 51.0753 15.5444 50.829 15.7944C50.5826 16.0444 50.2853 16.2384 49.9571 16.3629C49.629 16.4875 49.2779 16.5397 48.9277 16.5161ZM97.4855 26.4534V12.8059L101.922 19.8242L97.4855 26.4534Z" fill="#0B1133"/>
<path id="Union" d="M32.9585 32.8359H11.2026V21.9521H22.0737V11.0801H11.2026V0.196289H32.9585V32.8359ZM11.2017 21.9521L0.317871 26.1289V15.2451L11.2017 11.0801V21.9521Z" fill="#2950FF"/>
</g>
</svg>
