<svg width="453" height="63" viewBox="0 0 453 63" fill="none" xmlns="http://www.w3.org/2000/svg">
<g clip-path="url(#clip0_9090_955)">
<path d="M20.2767 62.2108H47.0988L23.9543 23.7569H44.9759V0.789063H21.6894C17.8469 0.788221 14.0732 1.80818 10.7543 3.74458C7.43542 5.68099 4.69052 8.46432 2.80046 11.8098C0.910392 15.1553 -0.0569922 18.9429 -0.00271856 22.785C0.0515551 26.6271 1.12554 30.3858 3.10935 33.6766L20.2844 62.2108H20.2767Z" fill="white"/>
<path d="M71.3173 0.789062H44.499L67.6435 39.2429H46.6219V62.2108H69.9046C73.7471 62.2116 77.5208 61.1917 80.8397 59.2553C84.1586 57.3189 86.9035 54.5355 88.7935 51.19C90.6836 47.8445 91.651 44.057 91.5967 40.2149C91.5424 36.3728 90.4685 32.6141 88.4846 29.3233L71.3173 0.789062ZM155.53 8.42839C160.171 8.42839 163.5 9.4764 165.519 11.5763C167.534 13.6723 168.544 16.7779 168.544 20.8932V25.3731C168.544 29.4884 167.534 32.594 165.519 34.6939C163.5 36.7937 160.171 37.8417 155.53 37.8417H130.474V49.4619C130.474 50.3487 130.029 50.794 129.142 50.794H122.604C121.679 50.794 121.215 50.3487 121.215 49.4619V10.2403C121.215 9.03109 121.817 8.42455 123.031 8.42455H155.53V8.42839ZM130.474 29.8492H153.653C155.711 29.8492 157.166 29.4077 158.01 28.521C158.859 27.6342 159.285 26.2791 159.285 24.4633V22.1638C159.285 20.348 158.862 18.9968 158.01 18.11C157.166 17.2232 155.711 16.7779 153.653 16.7779H131.261C130.735 16.7779 130.474 17.0198 130.474 17.5073V29.8492ZM223.378 8.42839C228.016 8.42839 231.344 9.4764 233.363 11.5763C235.382 13.6723 236.388 16.7779 236.388 20.8932V24.3443C236.388 27.8146 235.682 30.5594 234.269 32.5748C232.86 34.594 230.557 35.8839 227.371 36.452L237.72 49.2815C237.924 49.4811 237.985 49.7806 237.901 50.1875C237.824 50.5906 237.498 50.794 236.933 50.794H229.125C228.603 50.794 228.242 50.7326 228.039 50.6098C227.798 50.4517 227.592 50.2467 227.432 50.0071L217.87 37.4156H198.314V49.4619C198.314 50.3487 197.873 50.794 196.986 50.794H190.449C189.52 50.794 189.055 50.3487 189.055 49.4619V10.2403C189.055 9.03109 189.662 8.42455 190.871 8.42455H223.374L223.378 8.42839ZM198.314 30.0296H221.501C223.559 30.0296 225.01 29.5843 225.858 28.6976C226.703 27.8108 227.129 26.4595 227.129 24.6437V22.1024C227.129 20.2866 226.707 18.9353 225.858 18.0447C225.014 17.1618 223.555 16.7126 221.501 16.7126H199.105C198.583 16.7126 198.318 16.9583 198.318 17.442L198.314 30.0296ZM292.435 8.42839C295.507 8.42839 298.117 8.72014 300.274 9.30365C302.432 9.89099 304.19 10.8162 305.541 12.0868C306.893 13.3575 307.872 15.0044 308.474 17.0198C309.081 19.039 309.384 21.4997 309.384 24.4057V34.8129C309.384 37.7189 309.081 40.1911 308.474 42.2295C307.872 44.2641 306.893 45.9225 305.541 47.1932C304.19 48.46 302.432 49.3813 300.274 49.9456C298.117 50.5099 295.503 50.7902 292.435 50.7902H273.736C270.665 50.7902 268.066 50.5099 265.928 49.9456C263.79 49.3813 262.043 48.4638 260.692 47.1932C259.341 45.9225 258.35 44.268 257.728 42.2295C257.103 40.1911 256.788 37.7189 256.788 34.8129V24.4057C256.788 21.4997 257.103 19.039 257.728 17.0198C258.35 15.0044 259.341 13.3575 260.692 12.0868C262.043 10.82 263.79 9.89099 265.928 9.30365C268.066 8.72014 270.669 8.42839 273.736 8.42839H292.435ZM266.047 34.1487C266.047 35.7227 266.182 37.0432 266.443 38.1143C266.704 39.1815 267.137 40.0299 267.744 40.6556C268.347 41.2813 269.164 41.7228 270.193 41.9877C271.474 42.2755 272.785 42.407 274.097 42.3792H292.075C293.649 42.3792 294.95 42.2487 295.979 41.9877C297.008 41.7228 297.821 41.2813 298.428 40.6556C299.034 40.0299 299.464 39.1815 299.733 38.1143C299.994 37.0432 300.125 35.7227 300.125 34.1487V25.0698C300.125 23.4959 299.994 22.1753 299.729 21.1043C299.531 20.156 299.081 19.2785 298.428 18.563C297.752 17.8983 296.904 17.4368 295.979 17.2309C294.698 16.9423 293.387 16.8108 292.075 16.8393H274.093C272.519 16.8393 271.218 16.9698 270.189 17.2309C269.16 17.4958 268.347 17.9372 267.74 18.563C267.134 19.1887 266.704 20.0371 266.435 21.1043C266.149 22.4061 266.017 23.7372 266.043 25.0698L266.047 34.1487ZM366.579 8.42839C369.643 8.42839 372.257 8.72014 374.414 9.30365C376.576 9.89099 378.33 10.8162 379.681 12.0868C381.032 13.3575 382.011 15.0044 382.618 17.0198C383.221 19.039 383.524 21.4997 383.524 24.4057V34.8129C383.524 37.7189 383.221 40.1911 382.618 42.2295C382.011 44.2641 381.032 45.9225 379.681 47.1932C378.33 48.46 376.572 49.3813 374.414 49.9456C372.257 50.5099 369.643 50.7902 366.579 50.7902H347.876C344.809 50.7902 342.206 50.5099 340.068 49.9456C337.93 49.3813 336.187 48.4638 334.832 47.1932C333.481 45.9225 332.49 44.268 331.868 42.2295C331.242 40.1911 330.928 37.7189 330.928 34.8129V24.4057C330.928 21.4997 331.242 19.039 331.868 17.0198C332.494 15.0044 333.481 13.3575 334.832 12.0868C336.187 10.82 337.93 9.89099 340.068 9.30365C342.206 8.72014 344.809 8.42839 347.876 8.42839H366.579ZM340.191 34.1487C340.191 35.7227 340.321 37.0432 340.582 38.1143C340.843 39.1815 341.277 40.0299 341.888 40.6556C342.49 41.2813 343.308 41.7228 344.337 41.9877C345.618 42.2755 346.928 42.407 348.241 42.3792H366.214C367.788 42.3792 369.09 42.2487 370.119 41.9877C371.147 41.7228 371.961 41.2813 372.568 40.6556C373.174 40.0299 373.608 39.1815 373.873 38.1143C374.159 36.8125 374.291 35.4814 374.265 34.1487V25.0698C374.265 23.4959 374.134 22.1753 373.869 21.1043C373.67 20.1563 373.22 19.2789 372.568 18.563C371.892 17.8983 371.044 17.4368 370.119 17.2309C368.838 16.9423 367.527 16.8108 366.214 16.8393H348.237C346.663 16.8393 345.366 16.9698 344.337 17.2309C343.411 17.4377 342.561 17.899 341.884 18.563C341.277 19.1887 340.847 20.0371 340.582 21.1043C340.296 22.4061 340.165 23.7372 340.191 25.0698V34.1487ZM448.642 8.42839C449.571 8.42839 450.036 8.86986 450.036 9.75663V15.5072C450.036 16.394 449.571 16.8393 448.642 16.8393H422.377C420.803 16.8393 419.502 16.9698 418.473 17.2309C417.547 17.4358 416.699 17.8975 416.024 18.563C415.37 19.2785 414.921 20.156 414.722 21.1043C414.434 22.4058 414.301 23.737 414.327 25.0698V26.2791H448.343C449.23 26.2791 449.671 26.7244 449.671 27.6112V32.3944C449.671 33.2812 449.23 33.7265 448.343 33.7265H414.327V49.4619C414.327 50.3487 413.885 50.794 412.995 50.794H406.461C405.532 50.794 405.068 50.3487 405.068 49.4619V24.4057C405.068 21.4997 405.378 19.039 406.004 17.0198C406.63 15.0044 407.62 13.3575 408.972 12.0868C410.323 10.82 412.07 9.89099 414.208 9.30365C416.346 8.72014 418.949 8.42839 422.012 8.42839H448.642Z" fill="white"/>
</g>
<defs>
<clipPath id="clip0_9090_955">
<rect width="452.985" height="61.4217" fill="white" transform="translate(0 0.789062)"/>
</clipPath>
</defs>
</svg>
