<svg width="29" height="22" viewBox="0 0 29 22" fill="none" xmlns="http://www.w3.org/2000/svg">
<path d="M25.5581 0.0375977H2.80811C1.35834 0.0375977 0.183105 1.21283 0.183105 2.6626V18.4126C0.183105 19.8624 1.35834 21.0376 2.80811 21.0376H25.5581C27.0079 21.0376 28.1831 19.8624 28.1831 18.4126V2.6626C28.1831 1.21283 27.0079 0.0375977 25.5581 0.0375977ZM25.5581 2.6626V4.89412C24.3319 5.89266 22.377 7.44535 18.1979 10.7178C17.2769 11.4422 15.4525 13.1827 14.1831 13.1624C12.9139 13.1829 11.0889 11.442 10.1683 10.7178C5.98982 7.44584 4.03447 5.89282 2.80811 4.89412V2.6626H25.5581ZM2.80811 18.4126V8.26249C4.06121 9.26059 5.83829 10.6612 8.5469 12.7822C9.74221 13.7231 11.8355 15.8002 14.1831 15.7875C16.5192 15.8002 18.5859 13.7532 19.8188 12.7826C22.5274 10.6617 24.3049 9.2607 25.5581 8.26254V18.4126H2.80811Z" fill="#000B16"/>
</svg>
