<svg width="15" height="15" viewBox="0 0 15 15" fill="none" xmlns="http://www.w3.org/2000/svg">
<path d="M13.3696 2.53027H1.99463C1.26975 2.53027 0.682129 3.11789 0.682129 3.84277V11.7178C0.682129 12.4427 1.26975 13.0303 1.99463 13.0303H13.3696C14.0945 13.0303 14.6821 12.4427 14.6821 11.7178V3.84277C14.6821 3.11789 14.0945 2.53027 13.3696 2.53027ZM13.3696 3.84277V4.95853C12.7565 5.4578 11.7791 6.23415 9.68952 7.87037C9.22902 8.23259 8.31683 9.10281 7.68213 9.09266C7.04753 9.10292 6.13505 8.23246 5.67474 7.87037C3.58549 6.23439 2.60781 5.45789 1.99463 4.95853V3.84277H13.3696ZM1.99463 11.7178V6.64272C2.62118 7.14177 3.50972 7.84207 4.86403 8.90257C5.46168 9.37302 6.50832 10.4116 7.68213 10.4052C8.85017 10.4116 9.88355 9.38809 10.5 8.90279C11.8543 7.84232 12.743 7.14182 13.3696 6.64275V11.7178H1.99463Z" fill="#E5E8FB"/>
</svg>
