<svg width="41" height="42" viewBox="0 0 41 42" fill="none" xmlns="http://www.w3.org/2000/svg">
<mask id="mask0_9002_284" style="mask-type:luminance" maskUnits="userSpaceOnUse" x="0" y="1" width="41" height="41">
<path d="M40.5 1.40625H0.5V41.4062H40.5V1.40625Z" fill="white"/>
</mask>
<g mask="url(#mask0_9002_284)">
<path d="M20.5 41.4062C31.5457 41.4062 40.5 32.452 40.5 21.4062C40.5 10.3606 31.5457 1.40625 20.5 1.40625C9.45431 1.40625 0.5 10.3606 0.5 21.4062C0.5 32.452 9.45431 41.4062 20.5 41.4062Z" fill="url(#paint0_linear_9002_284)"/>
<path fill-rule="evenodd" clip-rule="evenodd" d="M9.5532 21.1951C15.3836 18.6549 19.2715 16.9802 21.2168 16.1711C26.771 13.8609 27.9251 13.4596 28.6773 13.4464C28.8428 13.4435 29.2127 13.4845 29.4523 13.6789C29.6547 13.8431 29.7103 14.0649 29.737 14.2205C29.7636 14.3762 29.7968 14.7308 29.7704 15.0079C29.4694 18.1703 28.1671 25.8448 27.5045 29.3868C27.2241 30.8856 26.6721 31.3881 26.1377 31.4373C24.9762 31.5442 24.0943 30.6697 22.9694 29.9323C21.2091 28.7785 20.2147 28.0602 18.5061 26.9342C16.5314 25.633 17.8115 24.9178 18.9368 23.749C19.2313 23.4431 24.3487 18.7885 24.4477 18.3662C24.4601 18.3134 24.4716 18.1166 24.3547 18.0126C24.2377 17.9087 24.0651 17.9443 23.9406 17.9725C23.764 18.0126 20.952 19.8712 15.5044 23.5485C14.7063 24.0966 13.9833 24.3636 13.3355 24.3496C12.6214 24.3342 11.2478 23.9459 10.2266 23.6139C8.9741 23.2068 7.97864 22.9915 8.06532 22.3001C8.11047 21.9399 8.60643 21.5716 9.5532 21.1951Z" fill="white"/>
</g>
<defs>
<linearGradient id="paint0_linear_9002_284" x1="20.5" y1="1.40625" x2="20.5" y2="41.1096" gradientUnits="userSpaceOnUse">
<stop stop-color="#2AABEE"/>
<stop offset="1" stop-color="#229ED9"/>
</linearGradient>
</defs>
</svg>
