<svg width="21" height="20" viewBox="0 0 21 20" fill="none" xmlns="http://www.w3.org/2000/svg">
<path d="M10.2505 0.3125C4.89893 0.3125 0.562988 4.64844 0.562988 10C0.562988 15.3516 4.89893 19.6875 10.2505 19.6875C15.6021 19.6875 19.938 15.3516 19.938 10C19.938 4.64844 15.6021 0.3125 10.2505 0.3125ZM15.0083 6.94922L13.4185 14.4414C13.3013 14.9727 12.9849 15.1016 12.5435 14.8516L10.1216 13.0664L8.95361 14.1914C8.82471 14.3203 8.71533 14.4297 8.46533 14.4297L8.63721 11.9648L13.1255 7.91016C13.3208 7.73828 13.0825 7.64062 12.8247 7.8125L7.27783 11.3047L4.88721 10.5586C4.36768 10.3945 4.35596 10.0391 4.99658 9.78906L14.3364 6.1875C14.77 6.03125 15.1489 6.29297 15.0083 6.94922Z" fill="#E5E8FB"/>
</svg>
