<svg width="16" height="17" viewBox="0 0 16 17" fill="none" xmlns="http://www.w3.org/2000/svg">
<path d="M15.75 8.34961C15.75 12.6298 12.2802 16.0996 8 16.0996C3.71978 16.0996 0.25 12.6298 0.25 8.34961C0.25 4.06939 3.71978 0.599609 8 0.599609C12.2802 0.599609 15.75 4.06939 15.75 8.34961ZM7.10356 12.4532L12.8536 6.70317C13.0488 6.50792 13.0488 6.19133 12.8536 5.99608L12.1465 5.28898C11.9512 5.0937 11.6346 5.0937 11.4393 5.28898L6.75 9.9783L4.56066 7.78895C4.36541 7.5937 4.04881 7.5937 3.85353 7.78895L3.14644 8.49605C2.95119 8.6913 2.95119 9.00789 3.14644 9.20314L6.39644 12.4531C6.59172 12.6484 6.90828 12.6484 7.10356 12.4532Z" fill="#3CC95B"/>
</svg>
