<svg width="21" height="20" viewBox="0 0 21 20" fill="none" xmlns="http://www.w3.org/2000/svg">
<path d="M10.2505 0.30249C4.89893 0.30249 0.562988 4.63843 0.562988 9.98999C0.562988 15.3416 4.89893 19.6775 10.2505 19.6775C15.6021 19.6775 19.938 15.3416 19.938 9.98999C19.938 4.63843 15.6021 0.30249 10.2505 0.30249ZM15.0083 6.93921L13.4185 14.4314C13.3013 14.9626 12.9849 15.0916 12.5435 14.8416L10.1216 13.0564L8.95361 14.1814C8.82471 14.3103 8.71533 14.4197 8.46533 14.4197L8.63721 11.9548L13.1255 7.90015C13.3208 7.72827 13.0825 7.63062 12.8247 7.80249L7.27783 11.2947L4.88721 10.5486C4.36768 10.3845 4.35596 10.0291 4.99658 9.77905L14.3364 6.17749C14.77 6.02124 15.1489 6.28296 15.0083 6.93921Z" fill="#58595D"/>
</svg>
